<?xml version="1.0" encoding="UTF-8" standalone="no"?>
<!DOCTYPE svg PUBLIC "-//W3C//DTD SVG 1.1//EN" "http://www.w3.org/Graphics/SVG/1.1/DTD/svg11.dtd">
<svg width="100%" height="100%" viewBox="0 0 62 73" version="1.1" xmlns="http://www.w3.org/2000/svg" xmlns:xlink="http://www.w3.org/1999/xlink" xml:space="preserve" xmlns:serif="http://www.serif.com/" style="fill-rule:evenodd;clip-rule:evenodd;stroke-linejoin:round;stroke-miterlimit:2;">
    <path d="M55.76,23.46C46.952,11.275 30.451,7.222 17,13.94L15.5,11.19L23.5,6.7L19.78,0L9.84,5.58L10.03,5.91L15.03,15.05C12.729,16.437 10.618,18.118 8.75,20.05C3.167,25.797 0.04,33.501 0.04,41.513C0.04,54.425 8.159,66.027 20.29,70.45C23.672,71.684 27.244,72.315 30.844,72.315C47.74,72.315 61.644,58.411 61.644,41.515C61.644,35.028 59.595,28.704 55.79,23.45L55.76,23.46ZM40.8,58.31C39.643,62.409 37.822,66.29 35.41,69.8C30.571,70.589 25.61,70.128 21,68.46C9.851,64.361 2.323,53.777 2.11,41.9C1.981,34.293 4.903,26.942 10.22,21.5C11.942,19.729 13.885,18.186 16,16.91L16.95,18.65C17.077,18.886 17.325,19.034 17.593,19.034C17.718,19.034 17.841,19.001 17.95,18.94L18.68,18.53C19.027,18.33 19.16,17.888 18.98,17.53L18,15.79C21.839,13.876 26.061,12.85 30.35,12.79C31.866,12.771 33.38,12.871 34.88,13.09C39.71,19.72 42.88,29.79 43.03,41.09C43.062,43.427 42.962,45.764 42.73,48.09C44.499,49.029 45.608,50.875 45.608,52.877C45.608,55.647 43.486,57.993 40.73,58.27L40.8,58.31ZM19.91,55.71C18.492,55.841 17.394,57.044 17.394,58.468C17.394,59.742 18.272,60.859 19.51,61.16L19.831,61.167C20.028,61.167 20.191,61.004 20.191,60.807C20.191,60.724 20.162,60.644 20.11,60.58C19.697,59.938 19.498,59.182 19.54,58.42C19.527,57.646 19.766,56.887 20.22,56.26C20.281,56.194 20.314,56.107 20.314,56.017C20.314,55.82 20.152,55.657 19.954,55.657C19.939,55.657 19.925,55.658 19.91,55.66L19.91,55.71ZM39.81,47.5C39.836,47.497 39.862,47.496 39.888,47.496C40.283,47.496 40.608,47.821 40.608,48.216C40.608,48.39 40.545,48.559 40.43,48.69C39.521,49.941 39.044,51.454 39.07,53C38.981,54.515 39.373,56.021 40.19,57.3C40.287,57.426 40.34,57.581 40.34,57.74C40.34,58.135 40.015,58.46 39.62,58.46C39.58,58.46 39.54,58.457 39.5,58.45L39,58.35C36.55,57.738 34.818,55.519 34.818,52.995C34.818,50.165 36.994,47.771 39.81,47.5ZM14.65,32.09C11.187,32.55 8.572,35.536 8.572,39.029C8.572,42.146 10.653,44.904 13.65,45.76L14.28,45.88C14.328,45.888 14.377,45.892 14.426,45.892C14.926,45.892 15.336,45.481 15.336,44.982C15.336,44.782 15.271,44.589 15.15,44.43C14.112,42.817 13.612,40.915 13.72,39C13.69,37.052 14.294,35.146 15.44,33.57C15.583,33.405 15.661,33.194 15.661,32.975C15.661,32.476 15.25,32.065 14.751,32.065C14.721,32.065 14.69,32.067 14.66,32.07L14.65,32.09ZM30,22.61C27.877,22.801 26.232,24.602 26.232,26.733C26.232,28.643 27.553,30.316 29.41,30.76L29.79,30.83C29.82,30.835 29.85,30.838 29.881,30.838C30.177,30.838 30.421,30.594 30.421,30.298C30.421,30.179 30.382,30.064 30.31,29.97C29.694,29.01 29.396,27.879 29.46,26.74C29.436,25.584 29.787,24.45 30.46,23.51C30.545,23.412 30.592,23.286 30.592,23.156C30.592,22.86 30.348,22.616 30.052,22.616C30.031,22.616 30.011,22.618 29.99,22.62L30,22.61ZM14.54,9.31L12.87,6.26L19,2.82L20.7,5.82L14.54,9.31Z" style="fill:url(#_Linear1);fill-rule:nonzero;"/>
    <path d="M14.54,9.31L12.87,6.26L19,2.82L20.7,5.82L14.54,9.31Z" style="fill:rgb(218,62,57);"/>
    <defs>
        <linearGradient id="_Linear1" x1="0" y1="0" x2="1" y2="0" gradientUnits="userSpaceOnUse" gradientTransform="matrix(4.46996e-15,73,-73,4.46996e-15,0,0)"><stop offset="0" style="stop-color:white;stop-opacity:1"/><stop offset="1" style="stop-color:white;stop-opacity:0.62"/></linearGradient>
    </defs>
</svg>
